<svg width="46" height="60" viewBox="0 0 46 60" fill="none" xmlns="http://www.w3.org/2000/svg">
<path d="M38.4044 53.4127C35.5036 50.9471 34.0991 47.1466 34.6992 43.3874L37.8865 22.9282C38.084 21.6589 38.1842 20.376 38.1851 19.0917V18.9521C38.1759 12.8679 35.2502 7.15661 30.318 3.59389C25.3854 0.0311625 19.0443 -0.950703 13.265 0.953211C5.51756 3.49711 0.29602 10.748 0.338329 18.9025V22.936C0.338329 31.5593 0.338329 47.61 8.68248 54.5949C14.1914 59.21 22.9358 59.9998 31.2133 59.9998C33.4762 59.9998 35.7035 59.9415 37.8189 59.8855C39.719 59.8345 41.5168 59.7868 43.165 59.7868H45.863L38.4044 53.4127ZM37.762 57.8946C28.2444 58.1484 16.3983 58.4611 9.96148 53.0679C2.33027 46.6802 2.33027 31.2344 2.33027 22.936V18.9025C2.28261 11.62 6.93759 5.13793 13.8539 2.85615C15.6003 2.31148 17.4191 2.03234 19.2491 2.02893C23.7416 2.02018 28.0533 3.80008 31.2323 6.97473C34.4113 10.1499 36.1961 14.4591 36.1932 18.9521V19.0917C36.1932 20.2734 36.1018 21.4537 35.9194 22.6213L32.7321 43.0815C32.025 47.524 33.6862 52.0141 37.1147 54.9266L40.5078 57.827C39.6173 57.845 38.703 57.8688 37.762 57.8946Z" fill="#F7654A"/>
</svg>
