<svg width="60" height="60" viewBox="0 0 60 60" fill="none" xmlns="http://www.w3.org/2000/svg">
<path d="M45 16C43.2549 16.0146 41.5391 16.4521 40 17.2749C38.2046 15.9565 36.165 15.0068 34 14.4819V11.8301C33.9995 10.124 34.3984 8.44141 35.165 6.91699L37.895 1.44678C38.0498 1.13672 38.0332 0.768555 37.8511 0.474121C37.6685 0.179199 37.3467 0 37 0H33.4702C31.5801 0.0126953 29.855 1.07959 29 2.76514L27.3779 6.01904C26.4717 7.82178 25.9995 9.81201 26 11.8301V14.4819C23.835 15.0068 21.7954 15.9565 20 17.2749C18.4609 16.4521 16.7451 16.0146 15 16C6.729 16 0 25.8691 0 38C0 50.1309 6.729 60 15 60C17.3745 59.9658 19.6782 59.188 21.5869 57.7759C26.8037 60.7412 33.1963 60.7412 38.4131 57.7759C40.3223 59.188 42.626 59.9658 45 60C53.271 60 60 50.1309 60 38C60 25.8691 53.271 16 45 16ZM28 11.8301C27.9995 10.123 28.3989 8.43994 29.166 6.91504L30.7832 3.66016C31.2974 2.64746 32.3345 2.00684 33.4702 2H35.3828L33.3779 6.01904C32.4717 7.82178 31.9995 9.81201 32 11.8301V14.1201C30.6714 13.96 29.3286 13.96 28 14.1201V11.8301ZM45 58C43.3013 57.9854 41.6411 57.4907 40.2109 56.5732C40.9731 56.0044 41.687 55.374 42.3452 54.688C42.7251 54.2871 42.708 53.6538 42.3071 53.2739C41.9062 52.894 41.2729 52.9111 40.8931 53.312C38.0601 56.3047 34.1206 57.9995 30 57.9995C25.8794 57.9995 21.9399 56.3047 19.1069 53.312C18.7271 52.9111 18.0938 52.894 17.6929 53.2739C17.292 53.6538 17.2749 54.2871 17.6553 54.688C18.3135 55.3735 19.0273 56.0039 19.7891 56.5732C18.3589 57.4902 16.6987 57.9849 15 58C7.83203 58 2 49.0278 2 38C2 26.9722 7.83203 18 15 18C16.1372 18.0059 17.2627 18.2363 18.311 18.6768C17.7456 19.2075 17.2168 19.7754 16.728 20.377C16.4966 20.6548 16.4331 21.0361 16.562 21.374C16.6914 21.7119 16.9927 21.9536 17.3506 22.0063C17.7085 22.0591 18.0669 21.9146 18.2881 21.6279C18.9917 20.7495 19.7915 19.9521 20.6719 19.251L20.7002 19.229C26.1533 14.9253 33.8472 14.9253 39.2998 19.229L39.3291 19.251C40.2104 19.9531 41.0103 20.7515 41.7139 21.6309C42.0591 22.0625 42.6885 22.1323 43.1201 21.7871C43.5513 21.4419 43.6211 20.8125 43.2759 20.3809C42.7856 19.7793 42.2554 19.2114 41.689 18.6812C42.7373 18.2388 43.8623 18.0073 45 18C52.168 18 58 26.9722 58 38C58 49.0278 52.168 58 45 58Z" fill="#F7654A"/>
</svg>
